<?xml version="1.0" standalone="no"?>
<!DOCTYPE svg PUBLIC "-//W3C//DTD SVG 20010904//EN"
 "http://www.w3.org/TR/2001/REC-SVG-20010904/DTD/svg10.dtd">
<svg version="1.0" xmlns="http://www.w3.org/2000/svg"
 width="997.000000pt" height="995.000000pt" viewBox="0 0 997.000000 995.000000"
 preserveAspectRatio="xMidYMid meet">

<g transform="translate(0.000000,995.000000) scale(0.100000,-0.100000)"
fill="#000000" stroke="none">
<path d="M4819 9125 c-117 -19 -197 -40 -299 -80 -250 -96 -456 -233 -684
-455 -205 -199 -317 -340 -529 -661 -481 -729 -801 -1389 -882 -1819 -33 -174
-22 -400 25 -525 l11 -30 18 51 c119 352 730 597 1721 690 229 21 880 30 1140
15 1185 -68 2037 -336 2209 -694 29 -60 30 -61 40 -35 42 110 54 351 25 511
-71 411 -350 1003 -811 1727 -218 341 -349 514 -538 709 -309 318 -648 520
-986 586 -117 23 -352 28 -460 10z"/>
<path d="M3365 6064 c-159 -44 -297 -94 -411 -148 -264 -127 -377 -248 -406
-438 l-11 -77 43 -58 c118 -157 335 -323 998 -765 174 -116 358 -239 408 -274
l92 -64 941 0 942 0 112 78 c62 43 281 192 489 330 578 387 797 559 905 709
l44 62 -21 77 c-23 86 -56 140 -124 202 -123 113 -375 231 -671 312 -77 21
-140 38 -141 37 0 -1 -8 -56 -18 -122 -34 -238 -106 -474 -210 -690 -113 -234
-221 -388 -387 -553 -267 -264 -583 -402 -918 -402 -345 0 -652 134 -926 405
-272 268 -465 634 -560 1060 -21 95 -54 296 -55 338 0 10 -15 8 -115 -19z"/>
<path d="M2464 4998 c-660 -779 -1214 -1606 -1648 -2462 -165 -325 -259 -565
-302 -766 -23 -106 -25 -329 -5 -410 53 -214 206 -387 447 -505 l110 -55 763
0 c723 0 763 1 755 18 -17 38 -17 172 1 217 20 55 73 102 129 117 l42 11 -27
51 c-16 28 -31 69 -34 91 -3 22 -55 630 -115 1352 -103 1244 -108 1315 -94
1369 25 97 91 171 183 202 24 9 202 12 633 12 391 0 597 3 593 10 -3 5 -194
135 -423 289 -411 275 -633 433 -784 557 -43 35 -79 64 -82 64 -2 0 -66 -73
-142 -162z"/>
<path d="M7287 5048 c-143 -117 -352 -265 -774 -545 -205 -137 -373 -251 -373
-255 0 -5 271 -8 603 -8 l602 0 50 -24 c105 -50 164 -144 165 -261 0 -38 -49
-657 -109 -1374 l-109 -1304 -29 -57 -30 -57 46 -12 c55 -15 112 -71 129 -128
16 -52 15 -138 -2 -185 l-14 -38 735 0 735 0 102 49 c199 96 335 221 407 376
138 295 72 648 -234 1260 -434 869 -997 1716 -1660 2500 -66 77 -124 141 -130
142 -7 1 -56 -35 -110 -79z"/>
<path d="M2680 4128 c-62 -32 -102 -86 -107 -145 -4 -47 24 -408 152 -1917 63
-744 66 -770 90 -812 18 -30 40 -49 77 -68 l52 -26 2065 0 c1426 0 2078 3
2104 11 48 13 113 70 126 112 6 18 60 629 121 1359 93 1112 109 1335 99 1370
-14 53 -72 112 -124 127 -29 8 -689 11 -2325 11 l-2286 0 -44 -22z m2504 -868
c119 -30 209 -82 301 -175 89 -89 138 -171 176 -295 34 -110 32 -273 -4 -385
-68 -210 -219 -365 -426 -439 -78 -28 -97 -31 -211 -31 -104 0 -137 4 -195 23
-364 121 -558 502 -439 863 110 331 462 525 798 439z"/>
<path d="M2695 1035 c-22 -21 -25 -33 -25 -104 0 -76 1 -80 31 -105 l31 -26
2290 0 2290 0 29 29 c27 27 29 35 29 99 0 61 -3 75 -26 101 l-26 31 -2299 0
-2300 0 -24 -25z"/>
</g>
</svg>
